# Blender v2.90.0 OBJ File: ''
# www.blender.org
mtllib bucket.mtl
o bucket.001
v -0.000000 -0.011440 -0.297949
v 0.000000 0.643383 -0.341940
v 0.258031 -0.011440 -0.148975
v 0.296129 0.643383 -0.170970
v 0.258031 -0.011440 0.148975
v 0.296129 0.643383 0.170970
v -0.000000 -0.011440 0.297949
v -0.000000 0.643383 0.341940
v -0.258031 -0.011440 0.148974
v -0.296129 0.643383 0.170970
v -0.258031 -0.011440 -0.148974
v -0.296129 0.643383 -0.170970
v 0.352565 0.643383 -0.203553
v 0.000000 0.643383 -0.407107
v 0.352565 0.643383 0.203553
v -0.000000 0.643383 0.407107
v -0.352565 0.643383 0.203553
v -0.352565 0.643383 -0.203553
v 0.236906 0.011440 -0.136778
v 0.000000 0.011440 -0.273555
v 0.236906 0.011440 0.136778
v -0.000000 0.011440 0.273555
v -0.236906 0.011440 0.136778
v -0.236906 0.011440 -0.136778
v -0.000000 0.315971 -0.352528
v 0.305298 0.315972 -0.176264
v 0.305298 0.315972 0.176264
v -0.000000 0.315972 0.352528
v -0.305298 0.315972 0.176264
v -0.305298 0.315972 -0.176264
v -0.000000 0.390442 -0.364942
v 0.316049 0.390442 -0.182471
v 0.316049 0.390442 0.182471
v -0.000000 0.390442 0.364942
v -0.316049 0.390442 0.182471
v -0.316049 0.390442 -0.182471
v 0.327669 0.390442 -0.189180
v 0.316523 0.315972 -0.182745
v 0.327669 0.390442 0.189180
v 0.316523 0.315972 0.182745
v -0.000000 0.390442 0.378360
v -0.000000 0.315972 0.365489
v -0.327669 0.390442 0.189180
v -0.316523 0.315972 0.182745
v -0.327669 0.390442 -0.189180
v -0.316523 0.315972 -0.182745
v 0.000000 0.315971 -0.365489
v 0.000000 0.390442 -0.378360
v 0.352565 0.759190 0.100894
v 0.352565 0.759190 -0.100894
v -0.352565 0.759190 -0.100894
v -0.352565 0.759190 0.100894
v 0.296129 0.759190 0.084743
v 0.296129 0.759190 -0.084744
v -0.296129 0.759190 -0.084744
v -0.296129 0.759190 0.084743
v 0.289571 0.207035 -0.167184
v 0.289571 0.207035 0.167184
v -0.000000 0.207035 0.334368
v -0.289571 0.207035 0.167184
v -0.289571 0.207035 -0.167184
v -0.000000 0.207035 -0.334368
v 0.278138 0.127836 -0.160583
v 0.278138 0.127836 0.160583
v -0.000000 0.127836 0.321166
v -0.278138 0.127836 0.160583
v -0.278138 0.127836 -0.160583
v -0.000000 0.127836 -0.321166
v -0.000000 0.127836 -0.338890
v 0.000000 0.207035 -0.352821
v 0.305552 0.207035 -0.176411
v 0.305552 0.207035 0.176411
v -0.000000 0.207035 0.352821
v -0.305552 0.207035 0.176410
v -0.305552 0.207035 -0.176411
v 0.293488 0.127836 -0.169445
v 0.293488 0.127836 0.169445
v -0.000000 0.127836 0.338890
v -0.293488 0.127836 0.169445
v -0.293488 0.127836 -0.169445
v -0.441423 0.705483 -0.058172
v 0.424702 0.705483 -0.058172
v -0.441423 0.676123 -0.038800
v 0.424702 0.676123 -0.038800
v -0.441423 0.676123 -0.000055
v 0.424702 0.676123 -0.000055
v -0.441423 0.705483 0.019317
v 0.424702 0.705483 0.019317
v -0.441423 0.734843 -0.000055
v 0.424702 0.734843 -0.000055
v -0.441423 0.734843 -0.038800
v 0.424702 0.734843 -0.038800
v -0.224892 0.689093 -0.058172
v -0.007230 0.676809 -0.053713
v 0.208171 0.689093 -0.058172
v 0.208171 0.659733 -0.038800
v -0.007230 0.647449 -0.034341
v -0.224892 0.659733 -0.038800
v 0.208171 0.659733 -0.000055
v -0.007230 0.647449 0.004403
v -0.224892 0.659733 -0.000055
v 0.208171 0.689093 0.019317
v -0.007230 0.676809 0.023776
v -0.224892 0.689093 0.019317
v 0.208171 0.718454 -0.000055
v -0.007230 0.706169 0.004403
v -0.224892 0.718454 -0.000055
v 0.208171 0.718454 -0.038800
v -0.007230 0.706169 -0.034341
v -0.224892 0.718454 -0.038800
vt 0.129002 0.451391
vt 0.171017 0.478723
vt 0.172620 0.509394
vt 0.128807 0.532188
vt 0.194063 0.522355
vt 0.194018 0.572254
vt 0.221897 0.506928
vt 0.263866 0.534183
vt 0.220116 0.476429
vt 0.263866 0.453670
vt 0.174966 0.480899
vt 0.196939 0.469858
vt 0.197472 0.492617
vt 0.197227 0.492204
vt 0.198801 0.463482
vt 0.198953 0.413605
vt 0.154641 0.463876
vt 0.201358 0.436667
vt 0.251442 0.457008
vt 0.254286 0.509481
vt 0.208671 0.539174
vt 0.159290 0.516233
vt 0.177221 0.504615
vt 0.207376 0.471322
vt 0.206930 0.472431
vt 0.195976 0.515897
vt 0.218019 0.504659
vt 0.215653 0.481191
vt 0.208859 0.474693
vt 0.209761 0.474009
vt 0.196495 0.492065
vt 0.196663 0.493308
vt 0.195862 0.493159
vt 0.195836 0.492514
vt 0.240965 0.467531
vt 0.266766 0.454713
vt 0.266766 0.535570
vt 0.243283 0.518324
vt 0.193831 0.442791
vt 0.196746 0.414305
vt 0.148058 0.466618
vt 0.124574 0.449372
vt 0.150376 0.517412
vt 0.124574 0.530229
vt 0.197510 0.542151
vt 0.194594 0.570637
vt 0.800855 0.566688
vt 0.720382 0.520228
vt 0.723517 0.518246
vt 0.800706 0.562982
vt 0.881325 0.520228
vt 0.878041 0.518504
vt 0.854999 0.441566
vt 0.800039 0.410776
vt 0.800084 0.408264
vt 0.857197 0.440349
vt 0.800855 0.380847
vt 0.881325 0.427308
vt 0.878191 0.429290
vt 0.801004 0.384553
vt 0.745894 0.442978
vt 0.746709 0.505969
vt 0.744511 0.507187
vt 0.743740 0.441683
vt 0.720382 0.427307
vt 0.723666 0.429031
vt 0.857967 0.505852
vt 0.801626 0.539271
vt 0.801670 0.536759
vt 0.855814 0.504557
vt 0.183674 0.511518
vt 0.185687 0.513685
vt 0.185272 0.514777
vt 0.182604 0.512466
vt 0.748290 0.446374
vt 0.749265 0.502242
vt 0.746351 0.503881
vt 0.745414 0.444669
vt 0.798136 0.529331
vt 0.798098 0.532675
vt 0.797162 0.384085
vt 0.874564 0.428774
vt 0.870094 0.431575
vt 0.797352 0.389357
vt 0.846031 0.500553
vt 0.845056 0.444685
vt 0.847971 0.443046
vt 0.848908 0.502257
vt 0.874564 0.518153
vt 0.797160 0.562842
vt 0.796970 0.557570
vt 0.869904 0.515681
vt 0.796186 0.417595
vt 0.796224 0.414252
vt 0.118460 0.537370
vt 0.116827 0.437493
vt 0.206017 0.585116
vt 0.292388 0.535425
vt 0.292388 0.435847
vt 0.203489 0.391236
vt 0.724227 0.515352
vt 0.724417 0.431245
vt 0.719756 0.518153
vt 0.719757 0.428773
vt 0.120659 0.412174
vt 0.291928 0.412174
vt 0.291928 0.583443
vt 0.120659 0.583443
vt 0.120659 0.412174
vt 0.291928 0.412174
vt 0.291928 0.583443
vt 0.120659 0.583443
vt 0.120659 0.412174
vt 0.291928 0.412174
vt 0.291928 0.583443
vt 0.120659 0.583443
vt 0.120659 0.412174
vt 0.291928 0.412174
vt 0.291928 0.583443
vt 0.120659 0.583443
vt 0.206293 0.583443
vt 0.280455 0.540625
vt 0.280455 0.454991
vt 0.206293 0.412174
vt 0.132132 0.454991
vt 0.132132 0.540625
vt 0.120659 0.412174
vt 0.291928 0.412174
vt 0.291928 0.583443
vt 0.120659 0.583443
vt 0.120659 0.412174
vt 0.291928 0.412174
vt 0.291928 0.583443
vt 0.120659 0.583443
vt 0.206293 0.583443
vt 0.280455 0.540625
vt 0.280455 0.454991
vt 0.206293 0.412174
vt 0.132132 0.454991
vt 0.132132 0.540625
vt 0.120659 0.412174
vt 0.291928 0.412174
vt 0.291928 0.583443
vt 0.120659 0.583443
vt 0.120659 0.412174
vt 0.291928 0.412174
vt 0.291928 0.583443
vt 0.120659 0.583443
vt 0.120659 0.412174
vt 0.291928 0.412174
vt 0.291928 0.583443
vt 0.120659 0.583443
vt 0.120659 0.412174
vt 0.291928 0.412174
vt 0.291928 0.583443
vt 0.120659 0.583443
vt 0.120659 0.412174
vt 0.291928 0.412174
vt 0.291928 0.583443
vt 0.120659 0.583443
vt 0.120659 0.412174
vt 0.291928 0.412174
vt 0.291928 0.583443
vt 0.120659 0.583443
vt 0.120659 0.412174
vt 0.291928 0.412174
vt 0.291928 0.583443
vt 0.120659 0.583443
vt 0.120659 0.412174
vt 0.291928 0.412174
vt 0.291928 0.583443
vt 0.120659 0.583443
vt 0.120659 0.412174
vt 0.291928 0.412174
vt 0.291928 0.583443
vt 0.120659 0.583443
vt 0.120659 0.412174
vt 0.291928 0.412174
vt 0.291928 0.583443
vt 0.120659 0.583443
vt 0.120659 0.412174
vt 0.291928 0.412174
vt 0.291928 0.583443
vt 0.120659 0.583443
vt 0.120659 0.412174
vt 0.291928 0.412174
vt 0.291928 0.583443
vt 0.120659 0.583443
vt 0.120659 0.412174
vt 0.291928 0.412174
vt 0.291928 0.583443
vt 0.120659 0.583443
vt 0.120659 0.412174
vt 0.291928 0.412174
vt 0.291928 0.583443
vt 0.120659 0.583443
vt 0.120659 0.412174
vt 0.291928 0.412174
vt 0.291928 0.583443
vt 0.120659 0.583443
vt 0.120659 0.412174
vt 0.291928 0.412174
vt 0.291928 0.583443
vt 0.120659 0.583443
vt 0.120659 0.412174
vt 0.291928 0.412174
vt 0.291928 0.583443
vt 0.120659 0.583443
vt 0.120659 0.412174
vt 0.291928 0.412174
vt 0.291928 0.583443
vt 0.120659 0.583443
vn 0.4949 -0.1429 -0.8571
vn 0.9897 -0.1429 0.0000
vn 0.4949 -0.1429 0.8571
vn -0.4949 -0.1429 0.8571
vn 0.4978 0.0933 0.8622
vn -0.9897 -0.1429 0.0000
vn -0.4949 -0.1429 -0.8571
vn -0.0000 -1.0000 0.0000
vn 0.0000 1.0000 0.0000
vn 0.3173 0.5993 -0.7349
vn 0.3173 0.5993 0.7349
vn -0.9956 0.0933 -0.0000
vn -0.4978 0.0933 -0.8622
vn 0.4978 0.0933 -0.8622
vn 0.9956 0.0933 -0.0000
vn -0.4978 0.0933 0.8622
vn -0.4945 -0.1480 -0.8565
vn -0.9890 -0.1480 0.0000
vn -0.4945 -0.1480 0.8565
vn 0.4945 -0.1480 0.8565
vn 0.9890 -0.1480 0.0000
vn 0.4945 -0.1480 -0.8565
vn -0.3173 0.5993 -0.7349
vn 1.0000 0.0000 0.0000
vn -0.3173 0.5993 0.7349
vn -1.0000 0.0000 0.0000
vn 0.4943 -0.1506 -0.8561
vn 0.9886 -0.1506 0.0000
vn 0.4943 -0.1506 0.8561
vn -0.4943 -0.1506 0.8561
vn -0.9886 -0.1506 0.0000
vn -0.4943 -0.1506 -0.8561
vn 0.0417 -0.5503 -0.8340
vn 0.0755 -0.9971 0.0000
vn 0.0417 -0.5502 0.8340
vn 0.0417 -0.5503 0.8340
vn 0.0486 -0.5501 0.8337
vn -0.0417 0.5503 0.8340
vn -0.0755 0.9971 0.0000
vn -0.0486 0.5501 -0.8337
vn -0.0417 0.5503 -0.8340
vn -0.0417 0.5502 -0.8340
vn 0.0417 0.5503 -0.8340
vn 0.0481 0.5501 -0.8337
vn 0.0417 0.5502 -0.8340
vn 0.0755 0.9971 0.0000
vn 0.0564 0.9984 0.0000
vn -0.0569 0.9984 0.0000
vn 0.0417 0.5503 0.8340
vn 0.0140 0.5507 0.8346
vn -0.0141 0.5507 0.8346
vn -0.0417 -0.5503 0.8340
vn -0.0416 -0.5502 0.8340
vn -0.0481 -0.5501 0.8337
vn -0.0755 -0.9971 0.0000
vn -0.0564 -0.9984 0.0000
vn 0.0569 -0.9984 0.0000
vn -0.0417 -0.5503 -0.8340
vn -0.0140 -0.5507 -0.8346
vn 0.0141 -0.5507 -0.8346
usemtl None
s 1
f 31/1/1 14/2/1 13/3/1 32/4/1
f 32/4/2 13/3/2 15/5/2 33/6/2
f 33/6/3 15/5/3 16/7/3 34/8/3
f 34/8/4 16/7/4 17/9/4 35/10/4
f 2/11/5 12/12/5 24/13/5 20/14/5
f 35/10/6 17/9/6 18/15/6 36/16/6
f 36/16/7 18/15/7 14/2/7 31/1/7
f 1/17/8 3/18/8 5/19/8 7/20/8 9/21/8 11/22/8
f 2/11/9 4/23/9 13/3/9 14/2/9
f 12/12/10 18/15/10 51/24/10 55/25/10
f 6/26/9 8/27/9 16/7/9 15/5/9
f 8/27/9 10/28/9 17/9/9 16/7/9
f 17/9/11 10/28/11 56/29/11 52/30/11
f 12/12/9 2/11/9 14/2/9 18/15/9
f 19/31/9 20/14/9 24/13/9 23/32/9 22/33/9 21/34/9
f 6/26/12 4/23/12 19/31/12 21/34/12
f 8/27/13 6/26/13 21/34/13 22/33/13
f 10/28/14 8/27/14 22/33/14 23/32/14
f 12/12/15 10/28/15 23/32/15 24/13/15
f 4/23/16 2/11/16 20/14/16 19/31/16
f 61/35/7 30/36/7 25/37/7 62/38/7
f 60/39/6 29/40/6 30/36/6 61/35/6
f 59/41/4 28/42/4 29/40/4 60/39/4
f 58/43/3 27/44/3 28/42/3 59/41/3
f 57/45/2 26/46/2 27/44/2 58/43/2
f 62/38/1 25/37/1 26/46/1 57/45/1
f 31/47/9 32/48/9 37/49/9 48/50/9
f 36/51/9 31/47/9 48/50/9 45/52/9
f 29/53/8 28/54/8 42/55/8 44/56/8
f 34/57/9 35/58/9 43/59/9 41/60/9
f 27/61/8 26/62/8 38/63/8 40/64/8
f 32/48/9 33/65/9 39/66/9 37/49/9
f 46/67/17 45/52/17 48/50/17 47/68/17
f 44/56/18 43/59/18 45/52/18 46/67/18
f 42/55/19 41/60/19 43/59/19 44/56/19
f 40/64/20 39/66/20 41/60/20 42/55/20
f 38/63/21 37/49/21 39/66/21 40/64/21
f 47/68/22 48/50/22 37/49/22 38/63/22
f 25/69/8 30/70/8 46/67/8 47/68/8
f 26/62/8 25/69/8 47/68/8 38/63/8
f 33/65/9 34/57/9 41/60/9 39/66/9
f 28/54/8 27/61/8 40/64/8 42/55/8
f 35/58/9 36/51/9 45/52/9 43/59/9
f 30/70/8 29/53/8 44/56/8 46/67/8
f 54/71/9 53/72/9 49/73/9 50/74/9
f 56/29/9 55/25/9 51/24/9 52/30/9
f 13/3/23 4/23/23 54/71/23 50/74/23
f 15/5/24 13/3/24 50/74/24 49/73/24
f 6/26/25 15/5/25 49/73/25 53/72/25
f 10/28/24 12/12/24 55/25/24 56/29/24
f 18/15/26 17/9/26 52/30/26 51/24/26
f 4/23/26 6/26/26 53/72/26 54/71/26
f 63/75/8 68/76/8 69/77/8 76/78/8
f 68/76/8 67/79/8 80/80/8 69/77/8
f 58/81/9 59/82/9 73/83/9 72/84/9
f 66/85/8 65/86/8 78/87/8 79/88/8
f 60/89/9 61/90/9 75/91/9 74/92/9
f 64/93/8 63/75/8 76/78/8 77/94/8
f 11/22/7 67/95/7 68/96/7 1/17/7
f 9/21/6 66/97/6 67/95/6 11/22/6
f 7/20/4 65/98/4 66/97/4 9/21/4
f 5/19/3 64/99/3 65/98/3 7/20/3
f 3/18/2 63/100/2 64/99/2 5/19/2
f 1/17/1 68/96/1 63/100/1 3/18/1
f 69/77/27 70/101/27 71/102/27 76/78/27
f 76/78/28 71/102/28 72/84/28 77/94/28
f 77/94/29 72/84/29 73/83/29 78/87/29
f 78/87/30 73/83/30 74/92/30 79/88/30
f 79/88/31 74/92/31 75/91/31 80/80/31
f 80/80/32 75/91/32 70/101/32 69/77/32
f 62/103/9 57/104/9 71/102/9 70/101/9
f 61/90/9 62/103/9 70/101/9 75/91/9
f 65/86/8 64/93/8 77/94/8 78/87/8
f 59/82/9 60/89/9 74/92/9 73/83/9
f 67/79/8 66/85/8 79/88/8 80/80/8
f 57/104/9 58/81/9 72/84/9 71/102/9
f 95/105/33 82/106/33 84/107/33 96/108/33
f 96/109/34 84/110/34 86/111/34 99/112/34
f 99/113/35 86/114/36 88/115/36 102/116/37
f 102/117/38 88/118/38 90/119/38 105/120/38
f 84/121/24 82/122/24 92/123/24 90/124/24 88/125/24 86/126/24
f 105/127/39 90/128/39 92/129/39 108/130/39
f 108/131/40 92/132/41 82/133/41 95/134/42
f 81/135/26 83/136/26 85/137/26 87/138/26 89/139/26 91/140/26
f 91/141/43 110/142/44 93/143/45 81/144/43
f 110/145/44 109/146/44 94/147/44 93/148/45
f 109/149/40 108/150/40 95/151/42 94/152/40
f 89/153/46 107/154/46 110/155/46 91/156/46
f 107/157/47 106/158/47 109/159/47 110/160/47
f 106/161/48 105/162/48 108/163/48 109/164/48
f 87/165/49 104/166/49 107/167/49 89/168/49
f 104/169/50 103/170/50 106/171/50 107/172/50
f 103/173/51 102/174/51 105/175/51 106/176/51
f 85/177/52 101/178/53 104/179/54 87/180/52
f 101/181/53 100/182/54 103/183/54 104/184/54
f 100/185/37 99/186/35 102/187/37 103/188/37
f 83/189/55 98/190/55 101/191/55 85/192/55
f 98/193/56 97/194/56 100/195/56 101/196/56
f 97/197/57 96/198/57 99/199/57 100/200/57
f 81/201/58 93/202/58 98/203/58 83/204/58
f 93/205/59 94/206/59 97/207/59 98/208/59
f 94/209/60 95/210/60 96/211/60 97/212/60
