# Blender v2.90.0 OBJ File: ''
# www.blender.org
mtllib fence.mtl
o object3
v 1.603450 1.024928 0.070815
v 1.603450 1.024928 -0.078264
v 1.523535 1.182908 -0.078264
v 1.523535 1.182908 0.070815
v -1.572750 0.571748 0.070815
v -1.492835 0.413768 0.070815
v -1.572750 0.571748 -0.078264
v -1.492835 0.413768 -0.078264
v -1.492597 1.183258 0.070815
v -1.492597 1.183258 -0.078264
v -1.572610 1.025324 -0.078264
v -1.572610 1.025324 0.070815
v 1.523297 0.413418 0.070815
v 1.603310 0.571352 0.070815
v 1.523298 0.413418 -0.078264
v 1.603310 0.571352 -0.078264
v -1.688942 0.534363 0.092481
v -1.688942 0.534363 -0.099929
v -1.688942 0.331245 -0.099929
v -1.688942 0.331245 0.092481
v 1.563323 0.331245 0.092481
v 1.563323 0.534363 0.092481
v 1.563323 0.331245 -0.099929
v 1.563323 0.534363 -0.099929
v -1.688942 1.320983 0.092481
v -1.688942 1.320983 -0.099929
v -1.688942 1.117865 -0.099929
v -1.688942 1.117865 0.092481
v 1.563323 1.117865 0.092481
v 1.563323 1.320983 0.092481
v 1.563323 1.117865 -0.099929
v 1.563323 1.320983 -0.099929
v -1.722774 1.591854 0.111461
v -1.722773 1.591854 -0.109605
v -1.771579 1.591854 -0.160886
v -1.771579 1.591854 0.162742
v -1.722774 0.259474 0.111461
v -1.722773 0.259474 -0.109605
v -1.771579 0.259474 -0.160886
v -1.771579 0.259474 0.162742
v -1.512379 0.259474 -0.109605
v -1.463573 0.259474 -0.160886
v -1.512379 1.591854 -0.109605
v -1.512379 1.591854 0.111461
v -1.463573 1.591854 0.162742
v -1.463573 1.591854 -0.160886
v -1.722774 0.015204 -0.109604
v -1.512379 0.015204 -0.109604
v -1.512379 0.015204 0.111461
v -1.722774 0.015204 0.111461
v -1.512379 0.259474 0.111461
v -1.512379 1.347585 0.111461
v -1.722774 1.347585 0.111461
v -1.512379 1.347585 -0.109605
v -1.722774 1.347585 -0.109605
v -1.771579 1.347585 0.162742
v -1.771579 1.347585 -0.160886
v -1.463573 0.259474 0.162742
v -1.463573 0.015204 0.162742
v -1.771579 0.015204 0.162742
v -1.771579 0.015204 -0.160886
v -1.463573 0.015204 -0.160886
v -1.463573 1.347585 -0.160886
v -1.463573 1.347585 0.162742
v 1.542892 1.591854 0.111461
v 1.542892 1.591854 -0.109604
v 1.494086 1.591854 -0.160885
v 1.494087 1.591854 0.162742
v 1.542892 0.259474 0.111461
v 1.542892 0.259474 -0.109604
v 1.494086 0.259474 -0.160885
v 1.494087 0.259474 0.162742
v 1.753287 0.259474 -0.109604
v 1.802092 0.259474 -0.160885
v 1.753287 1.591854 -0.109604
v 1.753287 1.591854 0.111461
v 1.802092 1.591854 0.162742
v 1.802092 1.591854 -0.160885
v 1.542892 0.015204 -0.109604
v 1.753287 0.015204 -0.109604
v 1.753287 0.015204 0.111461
v 1.542892 0.015204 0.111461
v 1.753287 0.259474 0.111461
v 1.753287 1.347585 0.111461
v 1.542892 1.347585 0.111461
v 1.753287 1.347585 -0.109604
v 1.542892 1.347585 -0.109604
v 1.494087 1.347585 0.162742
v 1.494086 1.347585 -0.160885
v 1.802092 0.259474 0.162742
v 1.802092 0.015204 0.162743
v 1.494086 0.015204 0.162742
v 1.494086 0.015204 -0.160885
v 1.802092 0.015204 -0.160885
v 1.802092 1.347585 -0.160885
v 1.802092 1.347585 0.162742
vt 0.000000 0.000000
vt 1.000000 0.000000
vt 1.000000 1.000000
vt 0.000000 1.000000
vt 0.000000 0.000000
vt 1.000000 0.000000
vt 1.000000 1.000000
vt 0.000000 1.000000
vt 0.000000 0.000000
vt 1.000000 0.000000
vt 1.000000 1.000000
vt 0.000000 0.000000
vt 1.000000 0.000000
vt 1.000000 1.000000
vt 0.000000 1.000000
vt 1.000000 0.000000
vt 1.000000 1.000000
vt 0.000000 1.000000
vt 0.000000 0.000000
vt 0.000000 1.000000
vt 0.000000 0.000000
vt 1.000000 0.000000
vt 1.000000 1.000000
vt 0.000000 1.000000
vt 0.000000 0.000000
vt 1.000000 0.000000
vt 1.000000 1.000000
vt 0.000000 1.000000
vt 0.000000 0.000000
vt 1.000000 0.000000
vt 1.000000 1.000000
vt 0.000000 0.000000
vt 1.000000 0.000000
vt 1.000000 1.000000
vt 0.000000 1.000000
vt 1.000000 0.000000
vt 1.000000 1.000000
vt 0.000000 1.000000
vt 0.000000 0.000000
vt 0.000000 1.000000
vt 0.000000 0.000000
vt 1.000000 0.000000
vt 1.000000 1.000000
vt 0.000000 1.000000
vt 0.000000 0.000000
vt 1.000000 0.000000
vt 1.000000 1.000000
vt 0.000000 1.000000
vt 0.000000 0.000000
vt 1.000000 0.000000
vt 1.000000 1.000000
vt 0.000000 0.000000
vt 1.000000 0.000000
vt 1.000000 1.000000
vt 0.000000 1.000000
vt 1.000000 0.000000
vt 1.000000 1.000000
vt 0.000000 1.000000
vt 0.000000 0.000000
vt 0.000000 1.000000
vt 0.000000 0.000000
vt 1.000000 0.000000
vt 1.000000 1.000000
vt 0.000000 1.000000
vt 0.000000 0.000000
vt 1.000000 0.000000
vt 1.000000 1.000000
vt 0.000000 1.000000
vt 0.000000 0.000000
vt 1.000000 0.000000
vt 1.000000 1.000000
vt 0.000000 0.000000
vt 1.000000 0.000000
vt 1.000000 1.000000
vt 0.000000 1.000000
vt 1.000000 0.000000
vt 1.000000 1.000000
vt 0.000000 1.000000
vt 0.000000 0.000000
vt 0.000000 1.000000
vt 0.000000 0.000000
vt 1.000000 0.000000
vt 1.000000 1.000000
vt 0.000000 1.000000
vt 0.000000 0.000000
vt 1.000000 0.000000
vt 1.000000 1.000000
vt 0.000000 1.000000
vt 0.000000 0.000000
vt 1.000000 0.000000
vt 1.000000 1.000000
vt 0.000000 1.000000
vt 0.000000 0.000000
vt 1.000000 0.000000
vt 1.000000 1.000000
vt 0.000000 1.000000
vt 0.000000 0.000000
vt 1.000000 0.000000
vt 1.000000 1.000000
vt 0.000000 1.000000
vt 1.000000 1.000000
vt 0.000000 1.000000
vt 0.000000 0.000000
vt 1.000000 0.000000
vt 1.000000 1.000000
vt 0.000000 1.000000
vt 0.000000 0.000000
vt 1.000000 0.000000
vt 1.000000 1.000000
vt 0.000000 1.000000
vt 1.000000 0.000000
vt 1.000000 1.000000
vt 0.000000 1.000000
vt 1.000000 0.000000
vt 1.000000 1.000000
vt 0.000000 1.000000
vt 0.000000 0.000000
vt 1.000000 1.000000
vt 0.000000 1.000000
vt 1.000000 0.000000
vt 1.000000 1.000000
vt 0.000000 1.000000
vt 0.000000 0.000000
vt 1.000000 0.000000
vt 1.000000 1.000000
vt 0.000000 1.000000
vt 0.000000 0.000000
vt 1.000000 0.000000
vt 1.000000 1.000000
vt 0.000000 1.000000
vt 0.000000 0.000000
vt 1.000000 0.000000
vt 0.000000 0.000000
vt 1.000000 0.000000
vt 1.000000 1.000000
vt 0.000000 1.000000
vt 0.000000 0.000000
vt 1.000000 0.000000
vt 0.000000 1.000000
vt 0.000000 0.000000
vt 1.000000 0.000000
vt 1.000000 1.000000
vt 0.000000 1.000000
vt 0.000000 0.000000
vt 1.000000 0.000000
vt 0.000000 1.000000
vt 0.000000 0.000000
vt 1.000000 0.000000
vt 0.000000 0.000000
vt 1.000000 0.000000
vt 0.000000 1.000000
vt 0.000000 0.000000
vt 1.000000 0.000000
vt 1.000000 1.000000
vt 0.000000 0.000000
vt 1.000000 1.000000
vt 0.000000 0.000000
vt 1.000000 1.000000
vt 1.000000 0.000000
vt 1.000000 1.000000
vt 0.000000 0.000000
vt 1.000000 1.000000
vt 0.000000 0.000000
vt 1.000000 1.000000
vt 0.000000 0.000000
vt 1.000000 0.000000
vt 0.000000 1.000000
vt 1.000000 0.000000
vt 0.000000 1.000000
vt 0.000000 0.000000
vt 1.000000 0.000000
vt 0.000000 1.000000
vt 0.000000 0.000000
vt 1.000000 0.000000
vt 1.000000 1.000000
vt 0.000000 1.000000
vt 0.000000 0.000000
vt 1.000000 0.000000
vt 1.000000 1.000000
vt 0.000000 1.000000
vt 0.000000 0.000000
vt 1.000000 0.000000
vt 1.000000 1.000000
vt 0.000000 1.000000
vt 0.000000 0.000000
vt 1.000000 0.000000
vt 1.000000 1.000000
vt 0.000000 1.000000
vt 0.000000 0.000000
vt 1.000000 0.000000
vt 1.000000 1.000000
vt 0.000000 1.000000
vt 1.000000 1.000000
vt 0.000000 1.000000
vt 0.000000 0.000000
vt 1.000000 0.000000
vt 1.000000 1.000000
vt 0.000000 1.000000
vt 0.000000 0.000000
vt 1.000000 0.000000
vt 1.000000 1.000000
vt 0.000000 1.000000
vt 1.000000 0.000000
vt 1.000000 1.000000
vt 0.000000 1.000000
vt 1.000000 0.000000
vt 1.000000 1.000000
vt 0.000000 1.000000
vt 0.000000 0.000000
vt 1.000000 1.000000
vt 0.000000 1.000000
vt 1.000000 0.000000
vt 1.000000 1.000000
vt 0.000000 1.000000
vt 0.000000 0.000000
vt 1.000000 0.000000
vt 1.000000 1.000000
vt 0.000000 1.000000
vt 0.000000 0.000000
vt 1.000000 0.000000
vt 1.000000 1.000000
vt 0.000000 1.000000
vt 0.000000 0.000000
vt 1.000000 0.000000
vt 0.000000 0.000000
vt 1.000000 0.000000
vt 1.000000 1.000000
vt 0.000000 1.000000
vt 0.000000 0.000000
vt 1.000000 0.000000
vt 0.000000 1.000000
vt 0.000000 0.000000
vt 1.000000 0.000000
vt 1.000000 1.000000
vt 0.000000 1.000000
vt 0.000000 0.000000
vt 1.000000 0.000000
vt 0.000000 1.000000
vt 0.000000 0.000000
vt 1.000000 0.000000
vt 0.000000 0.000000
vt 1.000000 0.000000
vt 0.000000 1.000000
vt 0.000000 0.000000
vt 1.000000 0.000000
vt 1.000000 1.000000
vt 0.000000 0.000000
vt 1.000000 1.000000
vt 0.000000 0.000000
vt 1.000000 1.000000
vt 1.000000 0.000000
vt 1.000000 1.000000
vt 0.000000 0.000000
vt 1.000000 1.000000
vt 0.000000 0.000000
vt 1.000000 1.000000
vt 0.000000 0.000000
vt 1.000000 0.000000
vt 0.000000 1.000000
vt 1.000000 0.000000
vt 0.000000 1.000000
vt 0.000000 0.000000
vt 1.000000 0.000000
vt 0.000000 1.000000
vn 0.8923 0.4514 0.0000
vn 0.0000 -0.0000 1.0000
vn -0.1936 0.9811 0.0000
vn -0.0000 0.0000 -1.0000
vn 0.1936 -0.9811 0.0000
vn -0.8923 -0.4514 0.0000
vn -0.8921 0.4519 0.0000
vn -0.1939 -0.9810 -0.0000
vn 0.1939 0.9810 0.0000
vn 0.8921 -0.4519 0.0000
vn -1.0000 0.0000 0.0000
vn 0.0000 -1.0000 -0.0000
vn 0.0000 1.0000 0.0000
vn 1.0000 0.0000 0.0000
usemtl None
s 1
f 1/1/1 2/2/1 3/3/1 4/4/1
f 4/5/2 5/6/2 6/7/2 1/8/2
f 3/9/3 7/10/3 5/11/3 4/4/3
f 2/12/4 8/13/4 7/14/4 3/15/4
f 1/1/5 6/16/5 8/17/5 2/18/5
f 5/19/6 7/10/6 8/17/6 6/20/6
f 9/21/7 10/22/7 11/23/7 12/24/7
f 12/25/2 13/26/2 14/27/2 9/28/2
f 11/29/8 15/30/8 13/31/8 12/24/8
f 10/32/4 16/33/4 15/34/4 11/35/4
f 9/21/9 14/36/9 16/37/9 10/38/9
f 13/39/10 15/30/10 16/37/10 14/40/10
f 17/41/11 18/42/11 19/43/11 20/44/11
f 20/45/2 21/46/2 22/47/2 17/48/2
f 19/49/12 23/50/12 21/51/12 20/44/12
f 18/52/4 24/53/4 23/54/4 19/55/4
f 17/41/13 22/56/13 24/57/13 18/58/13
f 21/59/14 23/50/14 24/57/14 22/60/14
f 25/61/11 26/62/11 27/63/11 28/64/11
f 28/65/2 29/66/2 30/67/2 25/68/2
f 27/69/12 31/70/12 29/71/12 28/64/12
f 26/72/4 32/73/4 31/74/4 27/75/4
f 25/61/13 30/76/13 32/77/13 26/78/13
f 29/79/14 31/70/14 32/77/14 30/80/14
f 33/81/13 34/82/13 35/83/13 36/84/13
f 37/85/13 38/86/13 39/87/13 40/88/13
f 38/89/13 41/90/13 42/91/13 39/92/13
f 43/93/13 44/94/13 45/95/13 46/96/13
f 47/97/12 48/98/12 49/99/12 50/100/12
f 43/93/13 34/82/13 33/101/13 44/102/13
f 51/103/2 52/104/2 53/105/2 37/106/2
f 41/107/14 54/108/14 52/109/14 51/110/14
f 38/89/4 55/111/4 54/112/4 41/113/4
f 37/85/11 53/114/11 55/115/11 38/116/11
f 55/117/12 53/114/12 56/118/12 57/119/12
f 41/107/13 51/120/13 58/121/13 42/122/13
f 50/123/12 49/124/12 59/125/12 60/126/12
f 48/127/12 47/128/12 61/129/12 62/130/12
f 56/131/11 36/132/11 35/83/11 57/119/11
f 57/133/4 35/134/4 46/135/4 63/136/4
f 63/137/14 46/138/14 45/95/14 64/139/14
f 64/140/2 45/141/2 36/142/2 56/143/2
f 60/144/11 40/145/11 39/87/11 61/146/11
f 61/147/4 39/148/4 42/91/4 62/130/4
f 62/149/14 42/150/14 58/121/14 59/151/14
f 59/152/2 58/153/2 40/154/2 60/126/2
f 54/155/12 55/111/12 57/156/12 63/136/12
f 49/157/12 48/98/12 62/158/12 59/151/12
f 47/97/12 50/159/12 60/160/12 61/146/12
f 52/161/12 54/108/12 63/162/12 64/139/12
f 53/163/12 52/104/12 64/164/12 56/143/12
f 44/165/13 33/166/13 36/142/13 45/167/13
f 51/103/13 37/168/13 40/154/13 58/169/13
f 34/170/13 43/171/13 46/135/13 35/172/13
f 65/173/13 66/174/13 67/175/13 68/176/13
f 69/177/13 70/178/13 71/179/13 72/180/13
f 70/181/13 73/182/13 74/183/13 71/184/13
f 75/185/13 76/186/13 77/187/13 78/188/13
f 79/189/12 80/190/12 81/191/12 82/192/12
f 75/185/13 66/174/13 65/193/13 76/194/13
f 83/195/2 84/196/2 85/197/2 69/198/2
f 73/199/14 86/200/14 84/201/14 83/202/14
f 70/181/4 87/203/4 86/204/4 73/205/4
f 69/177/11 85/206/11 87/207/11 70/208/11
f 87/209/12 85/206/12 88/210/12 89/211/12
f 73/199/13 83/212/13 90/213/13 74/214/13
f 82/215/12 81/216/12 91/217/12 92/218/12
f 80/219/12 79/220/12 93/221/12 94/222/12
f 88/223/11 68/224/11 67/175/11 89/211/11
f 89/225/4 67/226/4 78/227/4 95/228/4
f 95/229/14 78/230/14 77/187/14 96/231/14
f 96/232/2 77/233/2 68/234/2 88/235/2
f 92/236/11 72/237/11 71/179/11 93/238/11
f 93/239/4 71/240/4 74/183/4 94/222/4
f 94/241/14 74/242/14 90/213/14 91/243/14
f 91/244/2 90/245/2 72/246/2 92/218/2
f 86/247/12 87/203/12 89/248/12 95/228/12
f 81/249/12 80/190/12 94/250/12 91/243/12
f 79/189/12 82/251/12 92/252/12 93/238/12
f 84/253/12 86/200/12 95/254/12 96/231/12
f 85/255/12 84/196/12 96/256/12 88/235/12
f 76/257/13 65/258/13 68/234/13 77/259/13
f 83/195/13 69/260/13 72/246/13 90/261/13
f 66/262/13 75/263/13 78/227/13 67/264/13
